<svg id="Layer_1" data-name="Layer 1" xmlns="http://www.w3.org/2000/svg" width="601.77" height="736.38" viewBox="0 0 601.77 736.38"><defs><style>.cls-1{fill:#181818;}.cls-2{fill:#00ffef;}.cls-3{fill:#fdfdfd;}.cls-4{fill:#fefefe;}.cls-5{fill:#fafafa;}</style></defs><title>bigo-live-logo</title><path class="cls-1" d="M344.12,6.81c5.67,1.61,11.58,2.12,17.21,3.94a88.09,88.09,0,0,1,45.3,32.7,6.54,6.54,0,0,0,4.76,3c28.72,4.19,56,12.89,80.95,27.82,51.05,30.5,83.92,74.21,95.64,133,.66,3.28,1.48,6.62,1.42,9.92-.1,6.2,2.55,10.79,6.23,15.63,16.55,21.71,21,46.39,15.92,72.83-6.26,32.65-24.18,58.16-49.62,78.82a143.69,143.69,0,0,1-24.48,16.14c-2.72,1.4-2.55,2.31-.65,4.44A157.3,157.3,0,0,1,554.94,430a6,6,0,0,0,4.13,3.32c12.75,2.64,22.31,9.88,28.9,21,1.83,3.07,2.83,3.56,5.83,1.08,9.67-8,20.58-13.43,33.46-13.52,22.71-.16,42.78,16.94,47.21,39.8,3.08,15.92.88,31.45-4,46.53-11.57,35.52-30.08,67-56.33,93.75-8,8.19-17.23,15-28.11,19-17.51,6.6-33.63,1.31-43.47-14.55-1.93-3.11-2.75-2.87-5-.44-19.5,20.73-43.66,33.93-70.35,42.89-4.81,1.61-9.68,3.11-14.61,4.32a6.64,6.64,0,0,0-4.84,4c-7.88,16.29-17.56,31.36-30.67,44-11,10.6-23.43,18.93-38.82,21.27-23.41,3.55-41.94-5-54.9-24.61-3.44-5.21-6.68-6.85-12.83-6.68-37.57,1-72-9.15-102.84-30.7A110.17,110.17,0,0,1,179.07,652a14,14,0,0,0-6.75-5.39c-27.93-11.28-52.42-27.48-71.46-51.13-12.33-15.32-22-32.08-25.66-51.73a54.27,54.27,0,0,1,.43-23.59c4.92-19.43,21.57-28.75,40.25-21.53,6.72,2.61,12.17,4.12,18.56-.23,3.11-2.11,7.31-2.22,11.17-2.36,1.77-.06,2.42-.44,1.71-2.43-6.26-17.6-3.19-33.11,10.53-46.19.16-.15.2-.44.44-1a64,64,0,0,1-16.14-10.34C118.6,415,114.87,378,134,352.79c2.08-2.75,1.39-3.47-1.24-4.93-22-12.28-34.19-31.46-37.8-56.05-3.45-23.49,2.19-44.78,17.34-63.26a62.75,62.75,0,0,1,26.41-19.32c2.92-1.12,2.75-2.09,1.3-4.41-34-54.42,0-126.76,63.5-135.36a85.38,85.38,0,0,1,42.72,5c2.31.88,3.06.64,3.73-1.88,9.65-36,37.8-60.5,74.73-65.07.6-.08,1.25,0,1.62-.67Z" transform="translate(-74.11 -6.81)"/><path class="cls-2" d="M641.09,270.6c-3.26-11.7-6.51-23.11-9.58-34.57a6.56,6.56,0,0,0-4.39-4.95c-5.56-2.1-11-4.42-16.52-6.69-.87-.36-2.2-.5-2.21-1.67s1.34-1.29,2.21-1.65c5.26-2.17,10.48-4.47,15.83-6.4a7.86,7.86,0,0,0,5.31-6c2.68-10.17,5.53-20.3,8.32-30.45a5.32,5.32,0,0,1,1.78-3.43c1.46,5.18,2.86,10.09,4.23,15,1.94,6.91,3.91,13.82,5.75,20.75a4.93,4.93,0,0,0,3.36,3.57c5.89,2.29,11.73,4.67,17.58,7,.87.36,2.21.47,2.13,1.7-.06.95-1.26,1-2,1.35-5.17,2.07-10.27,4.36-15.55,6.12-3.77,1.25-5.45,3.68-6.4,7.33-2.64,10.18-5.52,20.3-8.32,30.44A3.17,3.17,0,0,1,641.09,270.6Z" transform="translate(-74.11 -6.81)"/><path class="cls-3" d="M389.48,726.07c-21.7,11.24-45.58,3.84-58.41-18.08a99.62,99.62,0,0,1-10.19-25.85c-1.48-5.77-4.22-8.17-8.05-7.16s-5.14,4.37-3.58,10.14c1,3.82,2.14,7.64,3.42,11.38.67,2,.72,2.87-1.8,2.92-39.81.72-75.47-10.61-106.13-36.45-5.7-4.81-11.09-10.12-14.85-16.53s-9.38-9.31-15.48-11.93c-20-8.57-38.45-19.56-53.85-35.1-16-16.17-28.6-34.51-33.44-57.25-1.51-7.11-1.63-14.28.81-21.28,3.67-10.59,11.85-14.81,22.58-11.58A69.17,69.17,0,0,1,117,512a2.52,2.52,0,0,1,1.68,2.92c-.6,6.49,2.39,11.44,7.48,14.85,10,6.71,20.65,12.32,32.72,14.44,2.16.38,2.37,1,1.51,2.85a122,122,0,0,0-6.31,16.65c-1.25,4.17.15,7.45,3.55,8.49s6.52-.72,7.85-4.9a149.77,149.77,0,0,1,19.87-40.14,7.55,7.55,0,0,0,1.21-6c-3.58-19.91-3.38-40-2.12-60,1.25-19.79-1.9-38.89-7.39-57.9-4.38-15.16-11.55-29.13-16.78-43.91-9.61-27.13-13.25-55-12.15-83.65,1.13-29.38,6.64-57.73,18-84.87a212.06,212.06,0,0,1,70-89.31,224.45,224.45,0,0,1,104.72-43c51.6-7.16,101-.2,146.23,26.72,48.78,29,79.62,71.26,89.59,127.78.88,5,1.2,10.08,1.63,15.14a8.67,8.67,0,0,0,2.24,5.34c23.31,25.83,25.69,55.3,14.46,86.72-10.42,29.15-30.51,50.34-56.7,66a176.64,176.64,0,0,1-70.29,23.72c-.49.06-1,.12-1.47.2-4.13.71-6.46,3.21-6.13,6.59s3.41,5.74,7.57,5.31a178.58,178.58,0,0,0,25.25-4.42,171.16,171.16,0,0,0,26.81-8.78c2.07-.9,3.3-.57,4.81,1,29.85,31.73,44.87,69.11,42.16,112.88-1.72,27.7-8.77,54-24.16,77.53-16.18,24.75-39,41.13-66,52.24a188.07,188.07,0,0,1-21.05,7.29c-.36-1.79.57-3.05,1.05-4.4,9.47-26.71,15.39-54.09,15.22-82.57a109.58,109.58,0,0,0-5.46-34.74c-9.46-28-33.34-43.78-63.75-42.12-20.79,1.14-38.15,9.91-52.87,24.22-2.52,2.44-4.08,2.56-7.09.84-15.73-9-32.24-10.66-49.34-4.23a27,27,0,0,0-5.54,3c-3.12,2.12-3.89,5.56-2.07,8.38s5,3.55,8.17,1.79c13.6-7.54,27.15-6.05,40.66.17,4.25,2,4.18,2.07,1.35,6A143.35,143.35,0,0,0,322,560.91c-1.84,4-.92,7.39,2.31,8.93s6.64.21,8.6-4c7.24-15.56,16.42-29.72,29.72-40.85s28.61-17.64,46.37-16.91c24.84,1,41.35,14.31,47.63,38.35,3.74,14.32,4.24,28.87,2.81,43.54-2.95,0-2.5-2.31-2.48-3.94A43.9,43.9,0,0,0,455,573.62c-3.66-12.88-15.35-16.89-25.41-15.64-12.23,1.53-21,9-28.59,17.91-13.6,16-21.65,34.73-26.27,55.11a212.37,212.37,0,0,0-5.69,51.52c.2,8.93,1.55,17.76,5.07,26.1,2.64,6.26,6.49,11.37,13.08,14C388.73,723.17,390.35,723.86,389.48,726.07Z" transform="translate(-74.11 -6.81)"/><path class="cls-2" d="M389.48,726.07c-.46-.4-.86-1-1.39-1.17-10.32-3.24-14.87-11.47-17.63-20.91-3.59-12.26-3.79-24.84-2.84-37.53,1.15-15.48,3.31-30.79,7.77-45.65,5.68-18.93,14.25-36.43,28.41-50.64,6.9-6.92,14.64-12.6,24.75-14,11.6-1.61,24.77,3.05,28.59,17.76a38.85,38.85,0,0,1,1.62,11.33,8.72,8.72,0,0,0,.67,4.72c-.76,12.51-3.2,24.75-6.28,36.86-5.93,23.29-14.53,45.46-28,65.54-8.91,13.32-19.48,24.94-33.68,32.83C390.87,725.56,390.16,725.78,389.48,726.07Z" transform="translate(-74.11 -6.81)"/><path class="cls-4" d="M582.83,629.21c-17.64,7.65-28-3.13-33.25-14.7-.74-1.64-.19-2.76.7-4.06,21.21-31,29.73-65.52,28.77-102.69a125.07,125.07,0,0,0-2.46-21c-.34-1.73-.81-3.21,2.1-2.49,3.08.77,5-1.26,6.82-3.51,6.67-8.39,14.2-15.81,23.51-21.38,25.66-15.36,53.81,4.42,54.31,30.78.81,4.62.17,8.43-3.59,12.09-6.19,6-9.5,14.13-13.44,21.7-6.81,13.07-12.66,26.61-19.77,39.54-8.43,15.31-17.22,30.38-27.77,44.35C593.4,614.91,588.61,622.43,582.83,629.21Z" transform="translate(-74.11 -6.81)"/><path class="cls-2" d="M238.49,84.93C197,113.2,167.56,150.62,150.43,197.65c-16.83-16.19-15.09-60.46,3.16-85.53C176.16,81.11,214.43,75.52,238.49,84.93Z" transform="translate(-74.11 -6.81)"/><path class="cls-2" d="M263.54,70.36c4.24-18.54,24.34-43.09,55.06-49.84,29.34-6.44,58.93,6.28,72.86,23.79C346.55,42,304.09,50.13,263.54,70.36Z" transform="translate(-74.11 -6.81)"/><path class="cls-2" d="M105.85,279.68c1.17-24.53,10.27-44.58,32.49-57.22.43-.24.87-.49,1.32-.69,1-.44,2.14-1.44,3.09-.76s.21,2.05,0,3.1a275.21,275.21,0,0,0-4.64,95.65c.66,5.27,1.92,10.47,2.83,15.71.15.88,1,2-.16,2.68-.79.46-1.63-.35-2.37-.76-15.82-8.65-25.32-22.18-30.1-39.27A67.09,67.09,0,0,1,105.85,279.68Z" transform="translate(-74.11 -6.81)"/><path class="cls-2" d="M582.83,629.21c.3-3.39,2.23-6,4.2-8.55a422.86,422.86,0,0,0,48.18-78.24c4.88-10.16,9.7-20.33,15.19-30.17,3-5.3,6-10.55,11.16-14.16,3-2.08.91-5.36,1.77-7.95,1.49,7.09.1,14.08-1.23,20.95-4.93,25.46-16.42,48.15-30.32,69.72-9.91,15.36-21,29.73-35.77,40.89A49.92,49.92,0,0,1,582.83,629.21Z" transform="translate(-74.11 -6.81)"/><path class="cls-2" d="M133.72,388.81a49.6,49.6,0,0,1,8.63-27.32c2.19-3.22,2.5-3.22,4.15.15,10.08,20.58,19.44,41.44,23.9,64.12.55,2.78.91,5.61,1.27,8.43.49,3.8.22,4-3.6,2.92A45.17,45.17,0,0,1,145,421.73C137.6,412.63,133.75,401.56,133.72,388.81Z" transform="translate(-74.11 -6.81)"/><path class="cls-2" d="M171.73,476.34c-.09,7.54-.36,15.07.32,22.61.09,1,.65,2.41-.54,3s-2.11-.37-3-.89c-12.06-6.68-16.07-25.92-8.06-38.37a23.81,23.81,0,0,1,9.35-8.76c2.33-1.17,3-.53,3,2-.11,6.79,0,13.58,0,20.38Z" transform="translate(-74.11 -6.81)"/><path class="cls-2" d="M146.31,508c10-.18,17.48,6,19.05,15.3,1.22,7.2-2.5,10.54-9.33,8-7.65-2.81-15.18-6-21.95-10.63-4.66-3.2-4.47-6.3.44-9.3A22.61,22.61,0,0,1,146.31,508Z" transform="translate(-74.11 -6.81)"/><path class="cls-5" d="M574.14,475.2a198,198,0,0,0-9.54-27.08c5.37,2.12,8.39,5.79,11.29,9.57C582.34,466.11,582.24,467.17,574.14,475.2Z" transform="translate(-74.11 -6.81)"/><path class="cls-1" d="M350.85,489.29a61,61,0,0,1-20.72-3.94,6.49,6.49,0,0,0-6.52.77,59.4,59.4,0,0,1-20.07,8.53c-4.39,1-7.71-.79-8.45-4.39-.71-3.45,1.39-6.26,5.71-7.27a50.84,50.84,0,0,0,19.44-9c3.51-2.67,6.75-2.83,10.69-1.19,7.39,3.07,15.08,4.87,23.18,4.28a25.77,25.77,0,0,0,24-28.82c-.77-7,1-9,8-9.18,5.72-.1,11.4-.57,16.76-2.82,3.26-1.36,5.86-3.32,5.47-7.44-.37-3.9-3.38-4.85-6.42-5.71a44.71,44.71,0,0,0-11.06-1.21c-9.29-.24-18.58-.41-27.87-.69-5.91-.18-8.05-2.85-7-8.6a28.82,28.82,0,0,0,.35-10.71c-.46-2.44-1.58-4.43-4.16-5.22s-4.56.42-6.24,2.24c-3.37,3.64-5.34,8.05-6.8,12.68a8.8,8.8,0,0,1-5.37,6.12c-4.76,1.94-7.56,6-9.36,10.57a9,9,0,0,1-7.4,5.92c-9.86,1.84-19.74,1.45-29.64.52a6.66,6.66,0,0,1-3.41-1.37c-5.27-3.95-10.32-8.13-14.34-13.41-2.66-3.51-2.51-7,.3-9.22s6.44-1.72,9,1.77c5.94,8.08,13.4,12.58,23.75,11a9.24,9.24,0,0,1,2.23,0c5.43.38,9.86-.68,12.15-6.52a13.73,13.73,0,0,1,5.93-6.54c3.87-2.25,5.93-5.58,7.59-9.56A30.15,30.15,0,0,1,340,388.18a17.26,17.26,0,0,1,27.11,8,22.41,22.41,0,0,1,1.51,9.48c-.27,3.28,1.12,3.91,4,3.92,7.43,0,14.87.23,22.29.53,5.61.23,11.12,1,16.14,3.81a17.84,17.84,0,0,1,2.37,29.93c-5.68,4.43-12.4,6.1-19.39,6.73-2.67.24-3.72,1-4,3.91C387.9,475.51,372,489.52,350.85,489.29Z" transform="translate(-74.11 -6.81)"/><path class="cls-1" d="M438.38,352.47c-21.43.36-39.35-1.41-56.73-7.17a88.35,88.35,0,0,1-24.14-12.11c-3.8-2.73-4.69-6.11-2.54-9.16s5.64-3.32,9.47-.63c14.75,10.39,31.58,14.82,49.17,16.23a216.18,216.18,0,0,0,113.63-21.37c12.11-5.89,23.17-13.39,32-23.79,4.7-5.54,8.32-11.69,9.89-18.89a14.47,14.47,0,0,1,.43-1.42c1.24-3.52,4.23-5.18,7.55-4.2,3.08.92,4.68,3.81,3.93,7.37-2.91,13.84-11,24.47-21.31,33.59-14.51,12.84-31.55,21.24-49.65,27.71A238.64,238.64,0,0,1,438.38,352.47Z" transform="translate(-74.11 -6.81)"/><path class="cls-1" d="M372.46,271.72c0-14.21,10.82-25.57,24.46-25.59,13.86,0,25.11,11.5,25.23,25.86s-10.85,25.8-24.66,25.8S372.5,286.08,372.46,271.72Z" transform="translate(-74.11 -6.81)"/><path class="cls-1" d="M555.91,244.6a25.65,25.65,0,0,1-4.8,15.34c-5.91,8.05-15.88,9.57-23.87,3.59-10.83-8.09-13.57-25.36-5.77-36.4,6.54-9.27,18.25-10.3,26.33-2.26A27.55,27.55,0,0,1,555.91,244.6Z" transform="translate(-74.11 -6.81)"/></svg>